<?xml version="1.0" encoding="UTF-8"?>
<svg id="Layer_2" data-name="Layer 2" xmlns="http://www.w3.org/2000/svg" viewBox="0 0 241.85 47.44">
  <defs>
    <style>
      .cls-1 {
        fill: #061930;
      }

      .cls-2, .cls-3 {
        fill: #c48e3f;
      }

      .cls-4 {
        fill: #06192e;
      }

      .cls-3 {
        font-family: Montserrat-Medium, Montserrat;
        font-size: 7.98px;
        font-weight: 500;
        letter-spacing: .08em;
      }

      .cls-5 {
        fill: #06192f;
      }

      .cls-6 {
        fill: #07192e;
      }

      .cls-7 {
        fill: #06172d;
      }

      .cls-8 {
        fill: #071a2f;
      }

      .cls-9 {
        fill: #071a31;
      }

      .cls-10 {
        fill: #081a30;
      }

      .cls-11 {
        fill: #05182e;
      }
    </style>
  </defs>
  <g id="Layer_1-2" data-name="Layer 1">
    <g>
      <g>
        <path class="cls-2" d="M20.56,16.56c3.82-.95,7.04,1.51,7.74,4.23.97,3.78-1.12,7.04-4.34,7.98s-6.62-.77-7.71-3.85.26-7.35,4.31-8.35Z"/>
        <path class="cls-9" d="M3.47,18.41c2.65-.57,4.76,1.51,5.07,3.44.41,2.57-1.09,4.67-3.26,5.12-2.47.51-4.62-.92-5.14-3.1-.55-2.33.6-4.87,3.34-5.46Z"/>
        <path class="cls-4" d="M20.11.61c2.38-1.34,5.13-.37,6.18,2.07.76,1.78.28,4.33-1.98,5.49-1.91.98-4.47.67-5.77-1.59-.97-1.7-.85-4.61,1.58-5.98Z"/>
        <path class="cls-10" d="M39.57,18.39c2.52-.35,4.52,1.61,4.8,3.61.36,2.56-1.38,4.51-3.32,4.96-2.59.6-4.7-1.12-5.15-2.98-.69-2.85.93-5.21,3.67-5.59Z"/>
        <path class="cls-11" d="M20.55,37.09c2.57-1.05,5.15.23,5.9,2.67.59,1.91-.25,4.39-2.54,5.28-2.03.79-4.54.13-5.59-2.2-.81-1.81-.37-4.69,2.22-5.75Z"/>
        <path class="cls-6" d="M38.42.38c2.36-.98,4.68.11,5.64,2.27.9,2.03-.05,4.66-2.03,5.64-2.31,1.14-4.82.1-5.81-1.84-1.18-2.31-.19-5.07,2.21-6.07Z"/>
        <path class="cls-8" d="M38.21,37.18c2.56-1.13,4.94-.02,5.86,2.1s0,4.69-2.04,5.65-4.48.17-5.58-1.48c-1.41-2.11-.78-5.15,1.77-6.28Z"/>
        <path class="cls-5" d="M2.35.52c2.43-1.25,4.83-.06,5.84,2.07.95,1.99.28,4.64-2.02,5.72-1.89.89-4.35.33-5.51-1.57S-.2,1.84,2.35.52Z"/>
        <path class="cls-1" d="M2.36,37.21c2.41-1.22,4.9-.11,5.85,2s.24,4.69-2.03,5.73c-1.88.86-4.38.37-5.53-1.56s-.79-4.92,1.71-6.18Z"/>
      </g>
      <g>
        <g>
          <path class="cls-7" d="M60.88,25.82V5.1h9.71c2.49,0,4.38.49,5.68,1.47,1.3.98,1.95,2.28,1.95,3.92,0,1.11-.26,2.05-.77,2.83-.51.78-1.2,1.38-2.06,1.81-.86.42-1.79.64-2.8.64l.53-1.07c1.16,0,2.21.21,3.14.64.93.42,1.66,1.04,2.21,1.85.54.81.81,1.82.81,3.02,0,1.78-.68,3.16-2.04,4.14-1.36.99-3.39,1.48-6.07,1.48h-10.3ZM64.73,22.8h6.22c1.44,0,2.55-.24,3.32-.71s1.15-1.23,1.15-2.28-.38-1.78-1.15-2.26c-.77-.48-1.88-.73-3.32-.73h-6.51v-2.99h5.74c1.34,0,2.37-.24,3.09-.71.72-.47,1.08-1.18,1.08-2.13s-.36-1.69-1.08-2.16c-.72-.47-1.75-.71-3.09-.71h-5.45v14.68Z"/>
          <path class="cls-7" d="M102.59,26.12c-1.62,0-3.11-.27-4.47-.8-1.36-.53-2.55-1.28-3.55-2.24-1.01-.96-1.79-2.08-2.34-3.37-.55-1.29-.83-2.71-.83-4.25s.28-2.96.83-4.25c.55-1.29,1.33-2.42,2.34-3.38,1.01-.96,2.19-1.7,3.55-2.23,1.36-.53,2.84-.8,4.44-.8s3.1.27,4.46.8c1.35.53,2.53,1.28,3.54,2.23,1.01.96,1.79,2.08,2.34,3.38.55,1.29.83,2.71.83,4.25s-.28,2.96-.83,4.26c-.55,1.3-1.33,2.43-2.34,3.37-1.01.95-2.19,1.69-3.54,2.22-1.35.53-2.83.8-4.43.8ZM102.56,22.75c1.05,0,2.01-.18,2.9-.53.89-.36,1.66-.86,2.31-1.52.65-.66,1.16-1.43,1.52-2.31.37-.88.55-1.85.55-2.92s-.18-2.04-.55-2.92c-.37-.88-.87-1.65-1.52-2.31-.65-.66-1.42-1.17-2.31-1.52-.89-.36-1.86-.53-2.9-.53s-2.01.18-2.89.53c-.88.36-1.65.86-2.31,1.52-.66.66-1.17,1.43-1.54,2.31-.37.88-.55,1.85-.55,2.92s.18,2.01.55,2.9c.37.89.87,1.66,1.52,2.32.65.66,1.42,1.17,2.31,1.52.89.36,1.86.53,2.9.53Z"/>
          <path class="cls-7" d="M136.99,26.12c-1.62,0-3.11-.27-4.47-.8-1.36-.53-2.55-1.28-3.55-2.24-1.01-.96-1.79-2.08-2.34-3.37-.55-1.29-.83-2.71-.83-4.25s.28-2.96.83-4.25c.55-1.29,1.33-2.42,2.34-3.38,1.01-.96,2.19-1.7,3.55-2.23,1.36-.53,2.84-.8,4.44-.8s3.1.27,4.46.8c1.35.53,2.53,1.28,3.54,2.23,1.01.96,1.79,2.08,2.34,3.38.55,1.29.83,2.71.83,4.25s-.28,2.96-.83,4.26c-.55,1.3-1.33,2.43-2.34,3.37-1.01.95-2.19,1.69-3.54,2.22-1.35.53-2.83.8-4.43.8ZM136.96,22.75c1.05,0,2.01-.18,2.9-.53.89-.36,1.66-.86,2.31-1.52.65-.66,1.16-1.43,1.52-2.31.37-.88.55-1.85.55-2.92s-.18-2.04-.55-2.92c-.37-.88-.87-1.65-1.52-2.31-.65-.66-1.42-1.17-2.31-1.52-.89-.36-1.86-.53-2.9-.53s-2.01.18-2.89.53c-.88.36-1.65.86-2.31,1.52-.66.66-1.17,1.43-1.54,2.31-.37.88-.55,1.85-.55,2.92s.18,2.01.55,2.9c.37.89.87,1.66,1.52,2.32.65.66,1.42,1.17,2.31,1.52.89.36,1.86.53,2.9.53Z"/>
          <path class="cls-7" d="M161.68,25.82V5.1h3.85v17.47h10.83v3.26h-14.68Z"/>
          <path class="cls-7" d="M198.21,26.12c-1.62,0-3.11-.27-4.47-.8-1.36-.53-2.55-1.28-3.55-2.24-1.01-.96-1.79-2.08-2.34-3.37-.55-1.29-.83-2.71-.83-4.25s.28-2.96.83-4.25c.55-1.29,1.33-2.42,2.34-3.38,1.01-.96,2.19-1.7,3.55-2.23,1.36-.53,2.84-.8,4.44-.8s3.1.27,4.46.8c1.35.53,2.53,1.28,3.54,2.23,1.01.96,1.79,2.08,2.34,3.38.55,1.29.83,2.71.83,4.25s-.28,2.96-.83,4.26-1.33,2.43-2.34,3.37c-1.01.95-2.19,1.69-3.54,2.22-1.35.53-2.83.8-4.43.8ZM198.18,22.75c1.05,0,2.01-.18,2.9-.53.89-.36,1.66-.86,2.31-1.52.65-.66,1.16-1.43,1.52-2.31.37-.88.55-1.85.55-2.92s-.18-2.04-.55-2.92c-.37-.88-.87-1.65-1.52-2.31-.65-.66-1.42-1.17-2.31-1.52-.89-.36-1.86-.53-2.9-.53s-2.01.18-2.89.53c-.88.36-1.65.86-2.31,1.52-.66.66-1.17,1.43-1.54,2.31-.37.88-.55,1.85-.55,2.92s.18,2.01.55,2.9c.36.89.87,1.66,1.52,2.32.65.66,1.42,1.17,2.31,1.52.89.36,1.85.53,2.9.53Z"/>
          <path class="cls-7" d="M222.9,25.82V5.1h3.85v20.72h-3.85ZM226.34,20.94l-.21-4.56,10.86-11.28h4.32l-9.03,9.59-2.13,2.34-3.82,3.91ZM237.35,25.82l-7.93-9.44,2.55-2.81,9.89,12.26h-4.5Z"/>
        </g>
        <g>
          <rect class="cls-2" x="61.15" y="41.75" width="44.5" height=".9"/>
          <rect class="cls-2" x="197.09" y="41.75" width="44.5" height=".9"/>
          <text class="cls-3" transform="translate(112.22 43.75)"><tspan x="0" y="0">LAND IS LIMITED</tspan></text>
        </g>
      </g>
    </g>
  </g>
</svg>